<svg width="206" height="72" viewBox="0 0 206 72" fill="none" xmlns="http://www.w3.org/2000/svg">
<path fill-rule="evenodd" clip-rule="evenodd" d="M56.1705 38.4494C56.2805 38.7766 56.1045 39.131 55.7773 39.241C54.7179 39.5973 54.1549 40.4866 53.8537 41.391C53.7341 41.7501 53.6619 42.0958 53.6185 42.3817C53.9043 42.3383 54.2501 42.266 54.6092 42.1464C55.5136 41.8453 56.4029 41.2823 56.7592 40.2228C56.8692 39.8957 57.2236 39.7196 57.5508 39.8296C57.878 39.9397 58.054 40.2941 57.944 40.6213C57.4096 42.2103 56.088 42.9715 55.0041 43.3324C54.4566 43.5148 53.9439 43.6048 53.5698 43.6497C53.3818 43.6722 53.2264 43.6836 53.116 43.6894C53.0607 43.6924 53.0166 43.6939 52.9851 43.6946C52.9693 43.695 52.9567 43.6952 52.9474 43.6954L52.936 43.6955L52.9322 43.6955L52.9308 43.6955L52.9302 43.6955C52.9299 43.6955 52.9297 43.6955 52.9297 43.0705C52.3047 43.0705 52.3047 43.0702 52.3047 43.07L52.3047 43.0694L52.3047 43.068L52.3047 43.0642L52.3048 43.0528C52.3049 43.0435 52.3051 43.0309 52.3055 43.0151C52.3063 42.9836 52.3078 42.9394 52.3107 42.8842C52.3165 42.7738 52.328 42.6184 52.3505 42.4304C52.3954 42.0562 52.4854 41.5436 52.6678 40.9961C53.0287 39.9122 53.7899 38.5906 55.3789 38.0562C55.7061 37.9462 56.0605 38.1222 56.1705 38.4494ZM52.9297 43.0705H52.3047C52.3047 43.4157 52.5845 43.6955 52.9297 43.6955V43.0705Z" fill="#A259FF"/>
<path fill-rule="evenodd" clip-rule="evenodd" d="M66.5462 29.4541C65.8208 29.3494 64.0351 29.31 62.2076 31.1375L57.3448 36.0003L60 38.6555L64.8627 33.7927C66.6903 31.9652 66.6508 30.1795 66.5462 29.4541ZM66.7275 28.2173C65.7298 28.0728 63.5058 28.0716 61.3237 30.2536L56.019 35.5583C55.9018 35.6755 55.8359 35.8345 55.8359 36.0003C55.8359 36.166 55.9018 36.325 56.019 36.4422L59.5581 39.9813C59.8021 40.2254 60.1979 40.2254 60.4419 39.9813L65.7466 34.6766C67.9287 32.4945 67.9275 30.2705 67.783 29.2728C67.7465 29.0058 67.6235 28.758 67.4329 28.5674C67.2422 28.3768 66.9945 28.2538 66.7275 28.2173Z" fill="#A259FF"/>
<path fill-rule="evenodd" clip-rule="evenodd" d="M64.422 34.4922C64.7672 34.4922 65.047 34.772 65.047 35.1172V40.1641L65.0469 40.173C65.0423 40.5013 64.9086 40.8145 64.675 41.045L62.1527 43.575C61.9926 43.7349 61.7921 43.8484 61.5725 43.9033C61.353 43.9582 61.1227 43.9524 60.9061 43.8867C60.6896 43.8209 60.495 43.6976 60.343 43.5299C60.1912 43.3623 60.0877 43.1567 60.0435 42.9349C60.0434 42.9347 60.0435 42.9351 60.0435 42.9349L59.3873 39.6619C59.3195 39.3235 59.5388 38.9941 59.8773 38.9263C60.2157 38.8584 60.5451 39.0778 60.6129 39.4162L61.2694 42.6906L63.797 40.1552V35.1172C63.797 34.772 64.0768 34.4922 64.422 34.4922Z" fill="#A259FF"/>
<path fill-rule="evenodd" clip-rule="evenodd" d="M55.8272 30.9532L55.8361 30.9531H60.883C61.2282 30.9531 61.508 31.2329 61.508 31.5781C61.508 31.9233 61.2282 32.2031 60.883 32.2031H55.845L55.8399 32.2083L55.8399 32.2082L53.3096 34.7307L53.3105 34.7309L56.584 35.3872C56.9224 35.455 57.1418 35.7844 57.0739 36.1229C57.0061 36.4613 56.6767 36.6807 56.3383 36.6128L53.0658 35.9567C53.0656 35.9567 53.0654 35.9567 53.0652 35.9566C52.8435 35.9124 52.6379 35.8089 52.4703 35.6571C52.3026 35.5052 52.1793 35.3105 52.1135 35.094C52.0477 34.8775 52.042 34.6471 52.0969 34.4276C52.1518 34.208 52.2652 34.0075 52.4252 33.8474L52.4261 33.8464L52.4261 33.8464L54.9552 31.3251C55.1857 31.0915 55.4989 30.9579 55.8272 30.9532Z" fill="#A259FF"/>
<path d="M84.3686 43.5V28.98H90.7266C92.4866 28.98 93.7846 29.3247 94.6206 30.014C95.4566 30.7033 95.8746 31.6787 95.8746 32.94C95.8746 33.7173 95.6399 34.4067 95.1706 35.008C94.7012 35.6093 94.0119 35.9907 93.1026 36.152V36.174C94.1146 36.3207 94.8919 36.702 95.4346 37.318C95.9772 37.934 96.2486 38.6673 96.2486 39.518C96.2486 40.7647 95.7939 41.74 94.8846 42.444C93.9899 43.148 92.6772 43.5 90.9466 43.5H84.3686ZM87.3166 41.212H90.6826C91.5039 41.212 92.1126 41.0433 92.5086 40.706C92.9046 40.3687 93.1026 39.8993 93.1026 39.298C93.1026 38.682 92.9046 38.2127 92.5086 37.89C92.1126 37.5673 91.5039 37.406 90.6826 37.406H87.3166V41.212ZM87.3166 35.074H90.3306C91.9292 35.074 92.7286 34.4507 92.7286 33.204C92.7286 31.9573 91.9292 31.334 90.3306 31.334H87.3166V35.074ZM102.67 43.72C101.936 43.72 101.276 43.588 100.69 43.324C100.103 43.06 99.6338 42.642 99.2818 42.07C98.9445 41.4833 98.7758 40.728 98.7758 39.804V32.5H101.79V39.078C101.79 39.9287 101.966 40.5227 102.318 40.86C102.67 41.1827 103.176 41.344 103.836 41.344C104.144 41.344 104.444 41.2927 104.738 41.19C105.031 41.0727 105.288 40.8967 105.508 40.662C105.742 40.4273 105.926 40.1267 106.058 39.76C106.19 39.3787 106.256 38.9313 106.256 38.418V32.5H109.27V43.5H106.586L106.476 41.586C106.109 42.3193 105.603 42.862 104.958 43.214C104.327 43.5513 103.564 43.72 102.67 43.72ZM116.335 29.134V39.914C116.335 40.442 116.467 40.8307 116.731 41.08C117.01 41.3147 117.384 41.432 117.853 41.432C118.22 41.432 118.543 41.3807 118.821 41.278C119.1 41.1607 119.349 41.0067 119.569 40.816L120.053 42.818C119.701 43.0967 119.261 43.3167 118.733 43.478C118.205 43.6393 117.648 43.72 117.061 43.72C116.328 43.72 115.675 43.61 115.103 43.39C114.546 43.17 114.106 42.818 113.783 42.334C113.475 41.85 113.321 41.2047 113.321 40.398V29.97L116.335 29.134ZM119.855 32.5V34.744H111.297V32.5H119.855ZM124.757 29.134V39.914C124.757 40.442 124.889 40.8307 125.153 41.08C125.432 41.3147 125.806 41.432 126.275 41.432C126.642 41.432 126.965 41.3807 127.243 41.278C127.522 41.1607 127.771 41.0067 127.991 40.816L128.475 42.818C128.123 43.0967 127.683 43.3167 127.155 43.478C126.627 43.6393 126.07 43.72 125.483 43.72C124.75 43.72 124.097 43.61 123.525 43.39C122.968 43.17 122.528 42.818 122.205 42.334C121.897 41.85 121.743 41.2047 121.743 40.398V29.97L124.757 29.134ZM128.277 32.5V34.744H119.719V32.5H128.277ZM135.332 32.28C136.447 32.28 137.422 32.5073 138.258 32.962C139.109 33.4167 139.769 34.0693 140.238 34.92C140.722 35.7707 140.964 36.7973 140.964 38C140.964 39.188 140.722 40.2147 140.238 41.08C139.769 41.9307 139.109 42.5833 138.258 43.038C137.422 43.4927 136.447 43.72 135.332 43.72C134.232 43.72 133.257 43.4927 132.406 43.038C131.556 42.5833 130.888 41.9307 130.404 41.08C129.935 40.2147 129.7 39.188 129.7 38C129.7 36.7973 129.935 35.7707 130.404 34.92C130.888 34.0693 131.556 33.4167 132.406 32.962C133.257 32.5073 134.232 32.28 135.332 32.28ZM135.332 34.524C134.775 34.524 134.298 34.656 133.902 34.92C133.521 35.1693 133.228 35.5507 133.022 36.064C132.817 36.5773 132.714 37.2227 132.714 38C132.714 38.7773 132.817 39.4227 133.022 39.936C133.228 40.4493 133.521 40.838 133.902 41.102C134.298 41.3513 134.775 41.476 135.332 41.476C135.875 41.476 136.337 41.3513 136.718 41.102C137.114 40.838 137.415 40.4493 137.62 39.936C137.826 39.4227 137.928 38.7773 137.928 38C137.928 37.2227 137.826 36.5773 137.62 36.064C137.415 35.5507 137.114 35.1693 136.718 34.92C136.337 34.656 135.875 34.524 135.332 34.524ZM143.486 43.5V32.5H146.192L146.368 35.8L145.994 35.448C146.17 34.7293 146.449 34.1353 146.83 33.666C147.212 33.1967 147.674 32.852 148.216 32.632C148.774 32.3973 149.382 32.28 150.042 32.28C150.805 32.28 151.48 32.4267 152.066 32.72C152.668 33.0133 153.137 33.4607 153.474 34.062C153.826 34.6487 154.002 35.3893 154.002 36.284V43.5H150.988V37.142C150.988 36.2033 150.805 35.558 150.438 35.206C150.072 34.8393 149.595 34.656 149.008 34.656C148.598 34.656 148.194 34.7587 147.798 34.964C147.417 35.1547 147.102 35.47 146.852 35.91C146.618 36.35 146.5 36.9367 146.5 37.67V43.5H143.486Z" fill="white"/>
<rect x="1" y="1" width="204" height="70" rx="19" stroke="#A259FF" stroke-width="2"/>
</svg>
